<?xml version="1.0" standalone="no"?>
<!DOCTYPE svg PUBLIC "-//W3C//DTD SVG 20010904//EN"
 "http://www.w3.org/TR/2001/REC-SVG-20010904/DTD/svg10.dtd">
<svg version="1.0" xmlns="http://www.w3.org/2000/svg"
 width="272.000000pt" height="272.000000pt" viewBox="0 0 272.000000 272.000000"
 preserveAspectRatio="xMidYMid meet">
<metadata>
Created by potrace 1.11, written by Peter Selinger 2001-2013
</metadata>
<g transform="translate(0.000000,272.000000) scale(0.100000,-0.100000)"
fill="#000000" stroke="none">
<path d="M23 2042 c2 -372 8 -695 11 -717 6 -34 23 -115 41 -200 3 -11 13 -49
24 -85 97 -333 307 -628 573 -808 303 -205 660 -275 975 -191 462 122 835 500
990 1004 13 44 26 89 28 100 2 11 8 47 14 80 6 33 15 101 20 150 11 116 15
1348 4 1342 -11 -7 -346 -76 -397 -83 -23 -2 -48 -7 -56 -9 -8 -2 -38 -7 -66
-10 -28 -3 -61 -7 -73 -10 -54 -10 -252 -30 -406 -41 -193 -13 -679 -7 -820
10 -16 2 -59 7 -95 11 -63 6 -120 12 -170 20 -91 13 -189 29 -280 46 -105 19
-116 21 -200 39 -25 6 -56 13 -70 15 -14 3 -31 8 -38 10 -11 4 -13 -113 -9
-673z"/>
</g>
</svg>
